<svg width="127" height="95" viewBox="0 0 127 95" fill="none" xmlns="http://www.w3.org/2000/svg">
<path d="M79.8539 25.4746L42.9171 0.290428C42.1501 -0.230727 41.1059 -0.0314577 40.5849 0.735557C40.3962 1.01337 40.2951 1.34139 40.2947 1.67729V16.8213C14.4726 17.8891 0.335736 43.4427 0 62.0354V62.1193C0 63.0465 0.751747 63.7983 1.679 63.7983C2.59586 63.7984 3.3432 63.0629 3.35799 62.1462V62.0488C3.54593 57.5391 21.195 38.0868 40.2947 36.9855V52.0456C40.2958 52.9729 41.0483 53.7237 41.9755 53.7227C42.3114 53.7224 42.6395 53.6212 42.9173 53.4325L79.8541 28.2483C80.62 27.7256 80.8172 26.6811 80.2945 25.9152C80.1763 25.7422 80.0269 25.5926 79.8539 25.4746Z" fill="white"/>
<g clip-path="url(#clip0)">
<path d="M47.108 61.1312L84.0448 86.3154C84.8118 86.8365 85.856 86.6373 86.377 85.8703C86.5657 85.5924 86.6668 85.2644 86.6673 84.9285V69.7845C112.489 68.7167 126.626 43.1631 126.962 24.5704V24.4865C126.962 23.5593 126.21 22.8075 125.283 22.8075C124.366 22.8074 123.619 23.5429 123.604 24.4596V24.5571C123.416 29.0668 105.767 48.519 86.6673 49.6203V34.5602C86.6662 33.633 85.9136 32.8822 84.9864 32.8831C84.6505 32.8834 84.3225 32.9846 84.0446 33.1734L47.1078 58.3575C46.3419 58.8802 46.1447 59.9248 46.6674 60.6907C46.7856 60.8636 46.935 61.0132 47.108 61.1312Z" fill="white"/>
</g>
<defs>
<clipPath id="clip0">
<rect width="80.5866" height="80.5866" fill="white" transform="translate(126.962 95) rotate(-180)"/>
</clipPath>
</defs>
</svg>
