<svg width="165" height="138" viewBox="0 0 165 138" fill="none" xmlns="http://www.w3.org/2000/svg">
<path d="M151.067 20.6004H116.734V13.7335C116.734 6.15941 110.575 0 103 0H61.8001C54.2261 0 48.0667 6.15909 48.0667 13.7335V20.6H13.7335C6.15909 20.6004 0 26.7594 0 34.3335V54.9335C0 62.5079 6.15909 68.667 13.7335 68.667H68.667V65.2336C68.667 63.3358 70.2027 61.8001 72.1005 61.8001H92.7005C94.5983 61.8001 96.134 63.3358 96.134 65.2336V68.667H151.067C158.641 68.667 164.8 62.5079 164.8 54.9335V34.3335C164.8 26.7594 158.641 20.6004 151.067 20.6004ZM103 20.6004H61.8001V13.7335H103V20.6004Z" fill="white"/>
<path d="M162.896 72.3718C161.726 71.7918 160.328 71.926 159.295 72.7104C156.854 74.558 154.01 75.5336 151.067 75.5336H96.1336V85.8336C96.1336 87.7314 94.598 89.2671 92.7002 89.2671H72.1001C70.2024 89.2671 68.6667 87.7314 68.6667 85.8336V75.5336H13.7335C10.7896 75.5336 7.94647 74.558 5.50536 72.7104C4.46924 71.9193 3.07456 71.785 1.90422 72.3718C0.737739 72.9522 0 74.1421 0 75.4467V123.601C0 131.175 6.15909 137.334 13.7335 137.334H151.067C158.641 137.334 164.801 131.175 164.801 123.601V75.4467C164.8 74.1421 164.063 72.9522 162.896 72.3718Z" fill="white"/>
</svg>
